{
  "accessors": [
    {
      "bufferView": 2,
      "componentType": 5126,
      "count": 65534,
      "max": [
        99.72946166992188,
        31.988418579101563,
        1415.54248046875
      ],
      "min": [
        -99.72394561767578,
        -31.988418579101563,
        -131.45028686523438
      ],
      "type": "VEC3"
    },
    {
      "bufferView": 2,
      "byteOffset": 786408,
      "componentType": 5126,
      "count": 65534,
      "max": [
        1.0,
        1.0,
        1.0
      ],
      "min": [
        -1.0,
        -1.0,
        -0.9994275569915771
      ],
      "type": "VEC3"
    },
    {
      "bufferView": 1,
      "componentType": 5126,
      "count": 65534,
      "max": [
        1.0,
        1.0
      ],
      "min": [
        0.0,
        0.0
      ],
      "type": "VEC2"
    },
    {
      "bufferView": 0,
      "componentType": 5125,
      "count": 377370,
      "type": "SCALAR"
    },
    {
      "bufferView": 2,
      "byteOffset": 1572816,
      "componentType": 5126,
      "count": 14142,
      "max": [
        99.72946166992188,
        31.988418579101563,
        1415.54248046875
      ],
      "min": [
        -99.80107116699219,
        -31.988418579101563,
        -135.75442504882813
      ],
      "type": "VEC3"
    },
    {
      "bufferView": 2,
      "byteOffset": 1742520,
      "componentType": 5126,
      "count": 14142,
      "max": [
        1.0,
        1.0,
        1.0
      ],
      "min": [
        -1.0,
        -1.0,
        -0.9994271993637085
      ],
      "type": "VEC3"
    },
    {
      "bufferView": 1,
      "byteOffset": 524272,
      "componentType": 5126,
      "count": 14142,
      "max": [
        1.0,
        1.0
      ],
      "min": [
        0.0,
        0.0
      ],
      "type": "VEC2"
    },
    {
      "bufferView": 0,
      "byteOffset": 1509480,
      "componentType": 5125,
      "count": 64230,
      "type": "SCALAR"
    },
    {
      "bufferView": 2,
      "byteOffset": 1912224,
      "componentType": 5126,
      "count": 10733,
      "max": [
        94.97418212890625,
        3.845913887023926,
        701.4839477539063
      ],
      "min": [
        -45.370262145996094,
        -3.845913887023926,
        -96.09632873535156
      ],
      "type": "VEC3"
    },
    {
      "bufferView": 2,
      "byteOffset": 2041020,
      "componentType": 5126,
      "count": 10733,
      "max": [
        0.9999985694885254,
        1.0,
        0.772163450717926
      ],
      "min": [
        -1.0,
        -1.0,
        -0.6784912347793579
      ],
      "type": "VEC3"
    },
    {
      "bufferView": 1,
      "byteOffset": 637408,
      "componentType": 5126,
      "count": 10733,
      "max": [
        1.0,
        1.0
      ],
      "min": [
        0.0,
        0.0
      ],
      "type": "VEC2"
    },
    {
      "bufferView": 0,
      "byteOffset": 1766400,
      "componentType": 5125,
      "count": 60672,
      "type": "SCALAR"
    }
  ],
  "asset": {
    "extras": {
      "author": "GulzarMrRobotics (https://sketchfab.com/GulzarAhmed)",
      "license": "CC-BY-4.0 (http://creativecommons.org/licenses/by/4.0/)",
      "source": "https://sketchfab.com/3d-models/surgical-knife-b435ebe4ea684b75b73008d497a4b082",
      "title": "Surgical Knife"
    },
    "generator": "Sketchfab-12.68.0",
    "version": "2.0"
  },
  "bufferViews": [
    {
      "buffer": 0,
      "byteLength": 2009088,
      "name": "floatBufferViews",
      "target": 34963
    },
    {
      "buffer": 0,
      "byteLength": 723272,
      "byteOffset": 2009088,
      "byteStride": 8,
      "name": "floatBufferViews",
      "target": 34962
    },
    {
      "buffer": 0,
      "byteLength": 2169816,
      "byteOffset": 2732360,
      "byteStride": 12,
      "name": "floatBufferViews",
      "target": 34962
    }
  ],
  "buffers": [
    {
      "byteLength": 4902176,
      "uri": "scene.bin"
    }
  ],
  "materials": [
    {
      "doubleSided": true,
      "name": "Hand",
      "pbrMetallicRoughness": {
        "baseColorFactor": [
          0.583040501764196,
          0.583040501764196,
          0.583040501764196,
          1.0
        ],
        "roughnessFactor": 0.3057187068687716
      }
    },
    {
      "doubleSided": true,
      "name": "Blade",
      "pbrMetallicRoughness": {
        "roughnessFactor": 0.2382683058813515
      }
    }
  ],
  "meshes": [
    {
      "name": "Cube_Hand_0",
      "primitives": [
        {
          "attributes": {
            "NORMAL": 1,
            "POSITION": 0,
            "TEXCOORD_0": 2
          },
          "indices": 3,
          "material": 0,
          "mode": 4
        }
      ]
    },
    {
      "name": "Cube_Hand_0",
      "primitives": [
        {
          "attributes": {
            "NORMAL": 5,
            "POSITION": 4,
            "TEXCOORD_0": 6
          },
          "indices": 7,
          "material": 0,
          "mode": 4
        }
      ]
    },
    {
      "name": "Cube_2_Blade_0",
      "primitives": [
        {
          "attributes": {
            "NORMAL": 9,
            "POSITION": 8,
            "TEXCOORD_0": 10
          },
          "indices": 11,
          "material": 1,
          "mode": 4
        }
      ]
    }
  ],
  "nodes": [
    {
      "children": [
        1
      ],
      "matrix": [
        1.0,
        0.0,
        0.0,
        0.0,
        0.0,
        2.220446049250313e-16,
        -1.0,
        0.0,
        0.0,
        1.0,
        2.220446049250313e-16,
        0.0,
        0.0,
        0.0,
        0.0,
        1.0
      ],
      "name": "Sketchfab_model"
    },
    {
      "children": [
        2
      ],
      "matrix": [
        0.009999999776482582,
        0.0,
        0.0,
        0.0,
        0.0,
        0.0,
        0.009999999776482582,
        0.0,
        0.0,
        -0.009999999776482582,
        0.0,
        0.0,
        0.0,
        0.0,
        0.0,
        1.0
      ],
      "name": "Surgical Knife.fbx"
    },
    {
      "children": [
        3,
        7
      ],
      "name": "RootNode"
    },
    {
      "children": [
        4
      ],
      "name": "Hand"
    },
    {
      "children": [
        5,
        6
      ],
      "name": "Cube"
    },
    {
      "mesh": 0,
      "name": "Cube_Hand_0"
    },
    {
      "mesh": 1,
      "name": "Cube_Hand_0"
    },
    {
      "children": [
        8
      ],
      "name": "Blade"
    },
    {
      "children": [
        9
      ],
      "matrix": [
        1.0,
        0.0,
        0.0,
        0.0,
        0.0,
        1.0,
        0.0,
        0.0,
        0.0,
        0.0,
        1.0,
        0.0,
        -5.370251655578613,
        0.0,
        1327.9901123046875,
        1.0
      ],
      "name": "Cube_2"
    },
    {
      "mesh": 2,
      "name": "Cube_2_Blade_0"
    }
  ],
  "scene": 0,
  "scenes": [
    {
      "name": "Sketchfab_Scene",
      "nodes": [
        0
      ]
    }
  ]
}
